<mxfile host="app.diagrams.net" agent="Mozilla/5.0 (Macintosh; Intel Mac OS X 10_15_7) AppleWebKit/605.1.15 (KHTML, like Gecko) Version/18.6 Safari/605.1.15" version="28.1.1" pages="3">
  <diagram name="Thin-Mode" id="JczfC67XA_MFm7w0CVA5">
    <mxGraphModel dx="1345" dy="905" grid="1" gridSize="10" guides="1" tooltips="1" connect="1" arrows="1" fold="1" page="1" pageScale="1" pageWidth="850" pageHeight="1100" math="0" shadow="0">
      <root>
        <mxCell id="0" />
        <mxCell id="1" parent="0" />
        <mxCell id="VxHfrE-ZoXU3M3a6k4wO-1" value="Linux" style="rounded=0;whiteSpace=wrap;html=1;" vertex="1" parent="1">
          <mxGeometry x="230" y="600" width="180" height="40" as="geometry" />
        </mxCell>
        <mxCell id="VxHfrE-ZoXU3M3a6k4wO-2" value="Python 3.X" style="rounded=0;whiteSpace=wrap;html=1;" vertex="1" parent="1">
          <mxGeometry x="230" y="560" width="180" height="40" as="geometry" />
        </mxCell>
        <mxCell id="VxHfrE-ZoXU3M3a6k4wO-3" value="PYTHON-ORACLDB" style="rounded=0;whiteSpace=wrap;html=1;" vertex="1" parent="1">
          <mxGeometry x="230" y="520" width="180" height="40" as="geometry" />
        </mxCell>
        <mxCell id="VxHfrE-ZoXU3M3a6k4wO-4" value="Oracle DB" style="shape=cylinder3;whiteSpace=wrap;html=1;boundedLbl=1;backgroundOutline=1;size=15;" vertex="1" parent="1">
          <mxGeometry x="530" y="545" width="70" height="70" as="geometry" />
        </mxCell>
        <mxCell id="VxHfrE-ZoXU3M3a6k4wO-5" style="edgeStyle=orthogonalEdgeStyle;rounded=0;orthogonalLoop=1;jettySize=auto;html=1;exitX=1;exitY=0.5;exitDx=0;exitDy=0;entryX=0;entryY=0.5;entryDx=0;entryDy=0;entryPerimeter=0;" edge="1" parent="1" source="VxHfrE-ZoXU3M3a6k4wO-2" target="VxHfrE-ZoXU3M3a6k4wO-4">
          <mxGeometry relative="1" as="geometry" />
        </mxCell>
      </root>
    </mxGraphModel>
  </diagram>
  <diagram id="UBJ7WSaJx-WNrD1sI9aQ" name="Thick-Mode-1">
    <mxGraphModel dx="1143" dy="769" grid="1" gridSize="10" guides="1" tooltips="1" connect="1" arrows="1" fold="1" page="1" pageScale="1" pageWidth="850" pageHeight="1100" math="0" shadow="0">
      <root>
        <mxCell id="0" />
        <mxCell id="1" parent="0" />
        <mxCell id="bi6wKQOKZAi36R2MEr_m-1" value="Linux" style="rounded=0;whiteSpace=wrap;html=1;" vertex="1" parent="1">
          <mxGeometry x="250" y="320" width="180" height="40" as="geometry" />
        </mxCell>
        <mxCell id="bi6wKQOKZAi36R2MEr_m-2" value="Python 3.X" style="rounded=0;whiteSpace=wrap;html=1;" vertex="1" parent="1">
          <mxGeometry x="250" y="280" width="180" height="40" as="geometry" />
        </mxCell>
        <mxCell id="bi6wKQOKZAi36R2MEr_m-3" value="PYTHON-ORACLDB" style="rounded=0;whiteSpace=wrap;html=1;" vertex="1" parent="1">
          <mxGeometry x="250" y="240" width="180" height="40" as="geometry" />
        </mxCell>
        <mxCell id="bi6wKQOKZAi36R2MEr_m-4" value="Oracle DB" style="shape=cylinder3;whiteSpace=wrap;html=1;boundedLbl=1;backgroundOutline=1;size=15;" vertex="1" parent="1">
          <mxGeometry x="550" y="265" width="70" height="70" as="geometry" />
        </mxCell>
        <mxCell id="bi6wKQOKZAi36R2MEr_m-5" style="edgeStyle=orthogonalEdgeStyle;rounded=0;orthogonalLoop=1;jettySize=auto;html=1;exitX=1;exitY=0.5;exitDx=0;exitDy=0;entryX=0;entryY=0.5;entryDx=0;entryDy=0;entryPerimeter=0;" edge="1" parent="1" source="bi6wKQOKZAi36R2MEr_m-2" target="bi6wKQOKZAi36R2MEr_m-4">
          <mxGeometry relative="1" as="geometry" />
        </mxCell>
        <mxCell id="-KsddlXM23cylvkR3uLE-1" value="Oracle Instant Client Libraries" style="rounded=0;whiteSpace=wrap;html=1;" vertex="1" parent="1">
          <mxGeometry x="250" y="200" width="180" height="40" as="geometry" />
        </mxCell>
      </root>
    </mxGraphModel>
  </diagram>
  <diagram id="POuWbJB5ak2XEZf4Je_1" name="Thick-Mode-2">
    <mxGraphModel dx="1143" dy="769" grid="1" gridSize="10" guides="1" tooltips="1" connect="1" arrows="1" fold="1" page="1" pageScale="1" pageWidth="850" pageHeight="1100" math="0" shadow="0">
      <root>
        <mxCell id="0" />
        <mxCell id="1" parent="0" />
        <mxCell id="FJQJZ8IDftK4dnyQ6l1j-1" value="Linux" style="rounded=0;whiteSpace=wrap;html=1;" vertex="1" parent="1">
          <mxGeometry x="290" y="380" width="180" height="40" as="geometry" />
        </mxCell>
        <mxCell id="FJQJZ8IDftK4dnyQ6l1j-2" value="Python 3.X" style="rounded=0;whiteSpace=wrap;html=1;" vertex="1" parent="1">
          <mxGeometry x="290" y="340" width="180" height="40" as="geometry" />
        </mxCell>
        <mxCell id="FJQJZ8IDftK4dnyQ6l1j-3" value="PYTHON-ORACLDB" style="rounded=0;whiteSpace=wrap;html=1;" vertex="1" parent="1">
          <mxGeometry x="290" y="300" width="180" height="40" as="geometry" />
        </mxCell>
        <mxCell id="FJQJZ8IDftK4dnyQ6l1j-4" value="Oracle DB" style="shape=cylinder3;whiteSpace=wrap;html=1;boundedLbl=1;backgroundOutline=1;size=15;" vertex="1" parent="1">
          <mxGeometry x="590" y="325" width="70" height="70" as="geometry" />
        </mxCell>
        <mxCell id="FJQJZ8IDftK4dnyQ6l1j-5" style="edgeStyle=orthogonalEdgeStyle;rounded=0;orthogonalLoop=1;jettySize=auto;html=1;exitX=1;exitY=0.5;exitDx=0;exitDy=0;entryX=0;entryY=0.5;entryDx=0;entryDy=0;entryPerimeter=0;" edge="1" parent="1" source="FJQJZ8IDftK4dnyQ6l1j-2" target="FJQJZ8IDftK4dnyQ6l1j-4">
          <mxGeometry relative="1" as="geometry" />
        </mxCell>
        <mxCell id="FJQJZ8IDftK4dnyQ6l1j-6" value="Oracle Instant Client Libraries" style="rounded=0;whiteSpace=wrap;html=1;" vertex="1" parent="1">
          <mxGeometry x="290" y="260" width="180" height="40" as="geometry" />
        </mxCell>
        <mxCell id="FJQJZ8IDftK4dnyQ6l1j-7" value="timezone_n.dat" style="rounded=0;whiteSpace=wrap;html=1;fontFamily=Helvetica;" vertex="1" parent="1">
          <mxGeometry x="290" y="220" width="180" height="40" as="geometry" />
        </mxCell>
        <UserObject label="&lt;span style=&quot;caret-color: rgb(0, 0, 0); color: rgb(0, 0, 0); font-family: Helvetica; font-size: 12px; font-style: normal; font-variant-caps: normal; font-weight: 400; letter-spacing: normal; orphans: auto; text-align: center; text-indent: 0px; text-transform: none; white-space: normal; widows: auto; word-spacing: 0px; -webkit-text-stroke-width: 0px; background-color: rgb(236, 236, 236); text-decoration: none; display: inline !important; float: none;&quot;&gt;timezone_n.dat&lt;/span&gt;" link="&lt;span style=&quot;caret-color: rgb(0, 0, 0); color: rgb(0, 0, 0); font-family: Helvetica; font-size: 12px; font-style: normal; font-variant-caps: normal; font-weight: 400; letter-spacing: normal; orphans: auto; text-align: center; text-indent: 0px; text-transform: none; white-space: normal; widows: auto; word-spacing: 0px; -webkit-text-stroke-width: 0px; background-color: rgb(236, 236, 236); text-decoration: none; display: inline !important; float: none;&quot;&gt;timezone_n.dat&lt;/span&gt;" id="FJQJZ8IDftK4dnyQ6l1j-8">
          <mxCell style="text;whiteSpace=wrap;html=1;" vertex="1" parent="1">
            <mxGeometry x="590" y="430" width="90" height="30" as="geometry" />
          </mxCell>
        </UserObject>
        <mxCell id="FJQJZ8IDftK4dnyQ6l1j-9" value="" style="endArrow=none;html=1;rounded=0;entryX=0.5;entryY=1;entryDx=0;entryDy=0;entryPerimeter=0;exitX=0.433;exitY=-0.067;exitDx=0;exitDy=0;exitPerimeter=0;" edge="1" parent="1" source="FJQJZ8IDftK4dnyQ6l1j-8" target="FJQJZ8IDftK4dnyQ6l1j-4">
          <mxGeometry width="50" height="50" relative="1" as="geometry">
            <mxPoint x="400" y="420" as="sourcePoint" />
            <mxPoint x="450" y="370" as="targetPoint" />
          </mxGeometry>
        </mxCell>
      </root>
    </mxGraphModel>
  </diagram>
</mxfile>
